<?xml version="1.0" encoding="UTF-8"?>
<svg version="1.1" xmlns="http://www.w3.org/2000/svg" width="1015" height="1000">
<path d="M0 0 C1.10249084 -0.00570007 2.20498169 -0.01140015 3.34088135 -0.01727295 C5.66360537 -0.02665612 7.9863423 -0.03323006 10.30908203 -0.03710938 C13.77792075 -0.04673568 17.24614542 -0.07779203 20.71484375 -0.109375 C55.46284784 -0.27527534 90.70304517 4.99775931 118.078125 28.203125 C118.71234375 28.6775 119.3465625 29.151875 120 29.640625 C134.66832865 40.94465809 141.76635562 58.82214158 146.078125 76.203125 C146.62001465 76.29287598 147.1619043 76.38262695 147.72021484 76.47509766 C174.77720023 81.0501154 200.04393505 89.92305201 221.078125 108.203125 C221.96371094 108.94046875 222.84929688 109.6778125 223.76171875 110.4375 C247.54458837 130.8538447 262.02995969 163.23264355 265.078125 194.203125 C265.5838688 203.52483277 265.50666928 212.86118734 265.45898438 222.1932373 C265.45312768 224.20220529 265.45897297 226.21078011 265.46923828 228.21972656 C265.66576568 269.40985286 265.66576568 269.40985286 256.078125 280.203125 C255.748125 280.533125 255.418125 280.863125 255.078125 281.203125 C249.34834257 281.203125 246.1587339 280.5689294 241.640625 277.015625 C224.15795524 263.7810806 197.74971584 263.24353659 176.90136719 265.97460938 C131.07350655 272.94799548 88.64074869 297.06618831 49.79272461 321.14208984 C47.07380569 322.82462176 44.34867574 324.49705776 41.625 326.171875 C29.19848582 333.84395656 17.03520533 341.81939455 5.078125 350.203125 C4.00256348 350.95456787 4.00256348 350.95456787 2.90527344 351.72119141 C-2.05542403 355.18961904 -6.9944068 358.68768054 -11.921875 362.203125 C-13.01798096 362.98405518 -13.01798096 362.98405518 -14.13623047 363.78076172 C-25.23771081 371.70282048 -36.13731235 379.85575165 -46.921875 388.203125 C-47.65937988 388.7717627 -48.39688477 389.34040039 -49.15673828 389.92626953 C-59.28227087 397.73341033 -69.28908764 405.66983613 -79.17773438 413.77490234 C-80.75096424 415.06317148 -82.32835748 416.34635225 -83.90625 417.62890625 C-89.35287127 422.06018916 -94.73147396 426.56476275 -100.08007812 431.11328125 C-103.55467769 434.0631791 -107.06663194 436.9599522 -110.609375 439.828125 C-115.00989075 443.40712623 -119.22020021 447.151048 -123.41015625 450.97265625 C-125.91646244 453.19831851 -128.49111893 455.29834061 -131.109375 457.390625 C-137.17794898 462.29548096 -142.80894164 467.63067501 -148.484375 472.98046875 C-151.56226558 475.87881571 -154.70667675 478.68266143 -157.91015625 481.44140625 C-161.11144521 484.24486512 -164.23113262 487.13740759 -167.36230469 490.01855469 C-170.50989938 492.91323531 -173.67434175 495.78704237 -176.859375 498.640625 C-187.35307617 508.06490439 -197.64113277 517.71653185 -207.94091797 527.3515625 C-209.99648687 529.27286328 -212.05478068 531.19121593 -214.11328125 533.109375 C-220.51453964 539.08244562 -226.85829294 545.07855109 -233.00390625 551.31640625 C-234.81313194 553.09615372 -236.67539392 554.74856559 -238.609375 556.390625 C-242.5874694 559.79472582 -246.2418684 563.48440186 -249.921875 567.203125 C-257.20262202 574.55999066 -257.20262202 574.55999066 -260.859375 577.640625 C-265.62314414 581.66359203 -269.93090389 586.16274405 -274.29272461 590.61108398 C-277.38676893 593.74764127 -280.5188019 596.76648394 -283.859375 599.640625 C-288.27174272 603.44527573 -292.34142466 607.54834952 -296.421875 611.703125 C-301.11763355 616.48441649 -305.86529285 621.08756418 -310.94384766 625.4609375 C-314.38229286 628.4894175 -317.62193564 631.7125287 -320.859375 634.953125 C-321.56030273 635.6534082 -322.26123047 636.35369141 -322.98339844 637.07519531 C-327.55413329 641.6925487 -331.68956418 646.43433467 -335.70703125 651.5390625 C-338.35316249 654.72188702 -341.18241545 657.65475901 -344.109375 660.578125 C-344.59696289 661.06635742 -345.08455078 661.55458984 -345.58691406 662.05761719 C-347.9971596 664.4319133 -350.46448274 666.68454105 -353.08203125 668.82421875 C-355.39535241 670.76206274 -357.2654214 672.57779577 -359.171875 674.890625 C-361.95004279 678.15435752 -364.87027797 681.19314066 -367.921875 684.203125 C-371.50746199 687.74544699 -374.87079162 691.37868161 -378.14453125 695.20703125 C-380.87286785 698.27116313 -383.81855408 701.10794332 -386.73828125 703.98828125 C-388.70162171 705.97971961 -390.54267169 708.01615078 -392.359375 710.140625 C-395.8665694 714.23370803 -399.67912658 717.97537204 -403.51171875 721.76171875 C-406.19042032 724.47515227 -408.66795618 727.31089523 -411.14453125 730.20703125 C-413.87286785 733.27116313 -416.81855408 736.10794332 -419.73828125 738.98828125 C-421.70162171 740.97971961 -423.54267169 743.01615078 -425.359375 745.140625 C-428.8665694 749.23370803 -432.67912658 752.97537204 -436.51171875 756.76171875 C-439.19042032 759.47515227 -441.66795618 762.31089523 -444.14453125 765.20703125 C-446.79882456 768.18800681 -449.65176137 770.95599983 -452.515625 773.734375 C-454.46576415 775.73516712 -456.27854875 777.76331366 -458.09375 779.8828125 C-462.35879146 784.79996598 -467.01787471 789.28325785 -471.671875 793.828125 C-477.98345419 800.05267951 -483.88486863 806.28148663 -489.17822266 813.39038086 C-492.61417946 817.96328504 -496.47048789 821.89972019 -500.57739258 825.87036133 C-504.66642165 829.85267948 -508.21783678 834.13924959 -511.76953125 838.609375 C-514.57512954 841.99035007 -517.65226489 845.01931203 -520.796875 848.08203125 C-523.42891393 850.70923187 -525.83203998 853.4936043 -528.25 856.31640625 C-529.86391968 858.13772216 -531.54684731 859.82580468 -533.296875 861.515625 C-537.06089351 865.21242889 -540.29779968 869.27859424 -543.609375 873.37890625 C-548.87476499 879.80944166 -554.49337216 885.81946274 -560.421875 891.640625 C-564.80734213 895.98345564 -568.76279816 900.49835368 -572.609375 905.3203125 C-575.15807691 908.4975794 -577.78035799 911.60310633 -580.421875 914.703125 C-583.84582678 918.72778048 -587.22171046 922.78340957 -590.546875 926.890625 C-595.86791555 933.41840153 -601.37359316 939.7735129 -607.421875 945.640625 C-612.81065195 950.9424862 -617.364275 957.00032282 -622.07421875 962.8984375 C-629.69637393 972.35376925 -637.87435764 981.25874204 -646.5234375 989.78125 C-649.42314494 992.72955588 -651.61138287 995.2716486 -652.921875 999.203125 C-654.241875 999.203125 -655.561875 999.203125 -656.921875 999.203125 C-655.46363338 993.4871779 -652.52381876 989.52655001 -649.046875 984.890625 C-647.86109474 983.28059892 -646.67621907 981.66990627 -645.4921875 980.05859375 C-644.5935498 978.84115479 -644.5935498 978.84115479 -643.67675781 977.59912109 C-641.04202146 974.00183359 -638.48103698 970.35436163 -635.921875 966.703125 C-626.47667871 953.28908515 -616.85140111 940.04898094 -606.87084961 927.02709961 C-600.93001321 919.25809382 -595.18641672 911.3600253 -589.49853516 903.40478516 C-586.28142267 898.91238497 -583.03850545 894.43855903 -579.80053711 889.96118164 C-577.05870083 886.16787448 -574.323699 882.36997454 -571.6015625 878.5625 C-563.59290655 867.37893345 -555.30601454 856.4971467 -546.546875 845.890625 C-539.16136902 836.90754503 -532.17788267 827.59725845 -525.24609375 818.26171875 C-517.57790466 807.94223031 -509.69461367 797.87952552 -501.44091797 788.02197266 C-499.31162573 785.47243437 -497.20966331 782.90161518 -495.109375 780.328125 C-494.408125 779.47089844 -493.706875 778.61367188 -492.984375 777.73046875 C-491.58573725 776.01660771 -490.18999359 774.30038157 -488.796875 772.58203125 C-484.07465947 766.77201964 -479.24926857 761.06373469 -474.36181641 755.39306641 C-471.34981559 751.89134047 -468.39150327 748.35552835 -465.484375 744.765625 C-460.32736414 738.41710261 -454.9424314 732.27219284 -449.57275391 726.10400391 C-442.67305767 718.15945572 -435.85656227 710.14307234 -429.0703125 702.1015625 C-425.1604153 697.47260374 -421.21000553 692.8791142 -417.25512695 688.28857422 C-414.30479087 684.85280021 -411.4342892 681.3685428 -408.609375 677.828125 C-404.1403572 672.3133407 -399.30305367 667.17489791 -394.4128418 662.03564453 C-391.30486747 658.7666502 -388.25740756 655.4691061 -385.3046875 652.05859375 C-381.65507806 647.8522729 -377.75013135 644.00012826 -373.765625 640.109375 C-371.63188094 637.98201939 -369.65571497 635.76036518 -367.6953125 633.47265625 C-363.40406508 628.51609009 -358.72343659 623.97996674 -354.046875 619.390625 C-347.96415359 613.36889564 -342.12283394 607.40347378 -336.85546875 600.65234375 C-330.0534183 592.03641318 -322.42629134 584.58419107 -313.859375 577.765625 C-309.53655222 573.99465194 -305.93099729 569.66466465 -302.30859375 565.2265625 C-298.29350477 560.41612176 -293.86777884 556.6029737 -288.97265625 552.703125 C-285.53972347 549.88996626 -282.25001443 546.95718052 -278.984375 543.953125 C-278.44087402 543.45780273 -277.89737305 542.96248047 -277.33740234 542.45214844 C-274.2168182 539.56189081 -271.55430839 536.53384599 -268.921875 533.203125 C-267.70352983 532.06412584 -266.45357776 530.95782792 -265.171875 529.890625 C-260.861027 526.20827446 -256.88877624 522.24918835 -252.921875 518.203125 C-251.92300303 517.20199824 -250.92341464 516.20158298 -249.921875 515.203125 C-250.77523438 515.50605469 -251.62859375 515.80898438 -252.5078125 516.12109375 C-288.89763749 528.31356089 -331.60531103 531.7926106 -369.921875 531.203125 C-369.921875 529.883125 -369.921875 528.563125 -369.921875 527.203125 C-368.32397461 525.80615234 -368.32397461 525.80615234 -366.07421875 524.5390625 C-364.8356311 523.82314941 -364.8356311 523.82314941 -363.57202148 523.09277344 C-362.67684814 522.59293945 -361.7816748 522.09310547 -360.859375 521.578125 C-359.01395389 520.51069639 -357.17021684 519.44035131 -355.328125 518.3671875 C-354.4103125 517.83512695 -353.4925 517.30306641 -352.546875 516.75488281 C-348.9047565 514.60185963 -345.3723546 512.30930713 -341.859375 509.953125 C-341.24215576 509.5494873 -340.62493652 509.14584961 -339.98901367 508.72998047 C-337.25473028 506.91451983 -334.87859824 505.16145626 -332.50390625 502.875 C-324.34972242 495.28081875 -314.47911065 496.10489026 -303.92578125 495.609375 C-267.03597008 493.79883212 -229.92522328 478.80970115 -200.921875 456.203125 C-200.39851562 455.79545898 -199.87515625 455.38779297 -199.3359375 454.96777344 C-172.29911526 433.59725038 -151.38553213 408.37745465 -147.19921875 373.33203125 C-144.96061153 348.07675825 -154.65119862 323.03479735 -169.921875 303.203125 C-170.61990234 302.23052734 -170.61990234 302.23052734 -171.33203125 301.23828125 C-189.28665228 277.90276463 -223.28676264 268.36156961 -251.05541992 264.61181641 C-263.72380928 263.07795809 -276.33353161 262.86370121 -289.08374023 262.88745117 C-292.53207801 262.89055542 -295.97950539 262.86725874 -299.42773438 262.84179688 C-336.96668482 262.7270469 -374.25304988 267.39719557 -411.484375 271.703125 C-490.59395232 280.84682987 -490.59395232 280.84682987 -530.421875 280.578125 C-531.71139069 280.57280762 -533.00090637 280.56749023 -534.32949829 280.56201172 C-553.37742038 280.47052187 -572.06157298 280.05116234 -590.921875 277.203125 C-592.22877289 277.01012817 -592.22877289 277.01012817 -593.56207275 276.81323242 C-636.67051463 270.44497108 -680.16294882 262.84465961 -720.64648438 246.11767578 C-722.88191009 245.21918815 -725.13407258 244.40573564 -727.40625 243.60546875 C-737.67710674 239.82060655 -743.31496075 234.61155253 -748.921875 225.203125 C-749.251875 224.213125 -749.581875 223.223125 -749.921875 222.203125 C-743.14308458 222.69847205 -737.65896725 224.16422945 -731.359375 226.640625 C-648.16139996 257.94169143 -559.93107687 259.89087627 -377.57949829 233.60598755 C-361.42277369 230.23851878 -345.32096312 227.16789464 -328.921875 225.203125 C-327.72691406 225.05504395 -326.53195312 224.90696289 -325.30078125 224.75439453 C-291.96449142 220.75937218 -257.12492137 219.71185195 -223.921875 225.203125 C-223.01308594 225.35297852 -222.10429688 225.50283203 -221.16796875 225.65722656 C-215.37228127 226.65059221 -209.64218408 227.84357875 -203.921875 229.203125 C-203.16648437 229.38069336 -202.41109375 229.55826172 -201.6328125 229.74121094 C-163.18300452 239.00682188 -126.76725624 261.19051478 -105.37109375 295.0625 C-95.5732698 311.24039287 -84.921875 333.96588117 -84.921875 353.203125 C-79.21849915 349.59098696 -73.8005924 345.64988265 -68.421875 341.578125 C8.8545753 283.26273402 104.60659749 226.15223322 219.984375 227.87890625 C223.72301055 228.49054777 227.40717482 229.26156831 231.078125 230.203125 C232.04367339 193.49743164 224.07811384 159.26603886 198.52392578 131.69189453 C181.88638148 114.55988758 157.43280023 102.54357789 134.09765625 98 C133.05303223 97.79334717 132.0084082 97.58669434 130.93212891 97.3737793 C128.84947129 96.973787 126.76169073 96.59946367 124.66943359 96.25317383 C122.00013356 95.7491029 119.58394523 95.25325027 117.078125 94.203125 C115.25120505 90.92503459 115.12393161 88.77570766 114.828125 85.078125 C112.73789625 74.27860978 106.21331565 64.8825077 97.54296875 58.26953125 C54.58095224 29.52516049 -9.27066242 40.42604376 -56.85101318 49.7845459 C-66.13632134 51.66136642 -75.32520276 53.91948401 -84.49023438 56.30859375 C-86.71313378 56.88804049 -88.9382933 57.45891239 -91.16601562 58.01953125 C-129.95741093 67.7941129 -167.68544794 81.93102023 -205.21269226 95.66268921 C-213.5773226 98.72042571 -221.95435351 101.74304598 -230.3359375 104.75390625 C-231.00225 104.99326338 -231.66856251 105.23262051 -232.3550663 105.47923088 C-236.4582605 106.95295538 -240.56177857 108.42577641 -244.66542435 109.89824295 C-250.82537296 112.10855921 -256.98504736 114.31963904 -263.14453125 116.53125 C-263.81414068 116.77164568 -264.48375011 117.01204136 -265.17365074 117.25972176 C-274.40640187 120.57477667 -283.63336246 123.90541978 -292.85546875 127.25 C-369.44139582 155.01602582 -446.30626413 176.24899696 -527.52929688 184.94598389 C-529.82618576 185.19284085 -532.12204259 185.44798452 -534.41796875 185.70361328 C-581.60983233 190.84291679 -631.78800579 190.93774348 -678.921875 185.203125 C-680.02912933 185.0723053 -680.02912933 185.0723053 -681.15875244 184.93884277 C-736.53740051 178.39536225 -736.53740051 178.39536225 -746.921875 173.203125 C-746.921875 172.543125 -746.921875 171.883125 -746.921875 171.203125 C-741.69967032 170.48239714 -736.63957617 170.06478361 -731.359375 169.9921875 C-729.85464525 169.96629663 -728.34992556 169.93981648 -726.84521484 169.9128418 C-726.04799011 169.89957855 -725.25076538 169.88631531 -724.42938232 169.87265015 C-629.38990856 168.18505927 -533.98115114 158.52004938 -392.96087646 120.86218262 C-391.03173507 120.23863459 -389.10111504 119.61966658 -387.17041016 119.00097656 C-351.13992494 107.35367434 -315.99719536 92.80184863 -280.796875 78.890625 C-279.96637634 78.56262909 -279.13587769 78.23463318 -278.2802124 77.896698 C-268.78024364 74.14227591 -259.29304714 70.35762956 -249.82256889 66.52937317 C-216.20590977 52.94147016 -182.59205562 39.9178467 -147.921875 29.203125 C-147.01475769 28.92229065 -146.10764038 28.6414563 -145.17303467 28.35211182 C-98.32674707 13.89155163 -49.36179798 0.20524858 0 0 Z " fill="#FCBD11" transform="translate(749.921875,-0.203125)"/>
<path d="M0 0 C1.53958374 1.50184885 3.06204135 3.02156135 4.5625 4.5625 C5.19671875 5.16449219 5.8309375 5.76648438 6.484375 6.38671875 C18.5582974 18.70105111 23.22690171 38.95984865 23.8125 55.625 C23.42754879 78.91454803 11.49611549 97.19043787 -4.59814453 113.14331055 C-18.67848471 126.68022945 -50.96671945 149.5625 -71.4375 149.5625 C-71.05031721 144.49134977 -68.28942652 141.70827859 -65 138.125 C-50.47600118 121.67547926 -37.33668204 102.98878888 -38.578125 79.953125 C-39.95530556 70.55237074 -45.6137644 62.11370759 -52.98828125 56.2421875 C-77.15116835 39.6711485 -107.28391285 37.09359296 -135.6875 34.375 C-136.57206879 34.29014343 -137.45663757 34.20528687 -138.36801147 34.11785889 C-156.53518011 32.39820178 -174.62565942 31.37790875 -192.875 31.4375 C-194.09262024 31.43882935 -194.09262024 31.43882935 -195.33483887 31.44018555 C-208.87649534 31.45700828 -222.40977206 31.69918006 -235.94787598 31.99285889 C-323.36143131 33.87195883 -323.36143131 33.87195883 -364.15588379 29.79034424 C-366.43382172 29.56286732 -368.71240576 29.34311198 -370.99121094 29.12451172 C-409.41749769 25.39257626 -447.38914892 18.51561032 -484.5 7.8125 C-485.49610291 7.52661514 -485.49610291 7.52661514 -486.5123291 7.23495483 C-498.85191141 3.67044792 -507.90567772 0.22957528 -514.375 -11.375 C-515.07480211 -12.72285037 -515.76698612 -14.07484276 -516.4375 -15.4375 C-510.65376892 -14.690273 -505.24765702 -12.93885378 -499.6875 -11.25 C-468.64184384 -2.08053659 -436.75861656 3.52063803 -404.4375 5.5625 C-403.81178101 5.60380035 -403.18606201 5.64510071 -402.54138184 5.68765259 C-388.71500886 6.58240668 -374.91499882 6.76398928 -361.0625 6.75 C-359.9477832 6.74939575 -358.83306641 6.7487915 -357.68457031 6.74816895 C-337.54030411 6.71874764 -317.52083502 6.11973576 -297.4375 4.5625 C-296.64412231 4.5016925 -295.85074463 4.44088501 -295.0333252 4.37823486 C-255.81036627 1.34258002 -216.84210443 -4.04051732 -177.87664795 -9.36096191 C-33.25028092 -29.0877269 -33.25028092 -29.0877269 0 0 Z " fill="#FCBD11" transform="translate(540.4375,314.4375)"/>
<path d="M0 0 C0.70507357 5.21754441 -1.65514659 8.4187267 -4.375 12.625 C-4.82617188 13.32923096 -5.27734375 14.03346191 -5.7421875 14.7590332 C-11.92117168 24.17662038 -18.74469342 33.60148211 -30 37 C-32.81961665 37.33872018 -35.15101456 37.26379495 -38 37 C-38.13535156 37.59425781 -38.27070312 38.18851563 -38.41015625 38.80078125 C-42.01343372 52.67447834 -51.20869183 63.99761989 -63.3125 71.5625 C-66.53574658 73.44317114 -69.31120417 74.41893305 -73 75 C-73.50615298 73.73160474 -74.00469099 72.46016898 -74.5 71.1875 C-74.91765625 70.12595703 -74.91765625 70.12595703 -75.34375 69.04296875 C-76 67 -76 67 -76 64 C-74.27734375 62.7109375 -74.27734375 62.7109375 -71.9375 61.375 C-64.97749585 56.94690287 -60.01591083 50.80669875 -57.421875 42.9296875 C-56.75515319 39.88005254 -56.80559434 37.11049058 -57 34 C-60.63 33.01 -64.26 32.02 -68 31 C-68.061875 32.32 -68.12375 33.64 -68.1875 35 C-68.91967607 41.54833528 -71.85503029 46.00824241 -76.625 50.4375 C-80.68873477 53.11100972 -84.04093736 53.18902156 -88.8125 53.25 C-90.61654297 53.28867188 -90.61654297 53.28867188 -92.45703125 53.328125 C-97.78667265 52.83453087 -101.74685551 50.86421382 -105.25 46.8125 C-108.62582309 42.60379667 -110.18441943 38.35770552 -109.88671875 32.9375 C-109.66287481 31.28038667 -109.34104486 29.63701531 -109 28 C-110.93719378 27.94593878 -112.87481921 27.90717975 -114.8125 27.875 C-115.89144531 27.85179688 -116.97039062 27.82859375 -118.08203125 27.8046875 C-121.19402868 27.76976283 -121.19402868 27.76976283 -124 30 C-125.19692674 39.4044244 -121.15703228 48.44357712 -115.74609375 56 C-109.70500334 62.91954875 -101.60232838 65.52555698 -93 68 C-93 71.63 -93 75.26 -93 79 C-105.58725055 79.49686515 -116.49828188 77.25376406 -127 70 C-129.50584726 67.62422725 -131.9137081 65.22797381 -134.22265625 62.66015625 C-140.66151391 58.81133135 -151.01159115 62.67010388 -158.02661133 64.1171875 C-159.60681816 64.43686493 -159.60681816 64.43686493 -161.21894836 64.76300049 C-163.49023051 65.22303893 -165.76107046 65.68526502 -168.03150368 66.1494751 C-171.63480016 66.88578295 -175.23939246 67.61541078 -178.84440613 68.34326172 C-189.08869021 70.4128201 -199.33053225 72.49433981 -209.5715332 74.58007812 C-215.8516892 75.85865032 -222.13335688 77.12956898 -228.41596031 78.39605713 C-230.79778946 78.87786182 -233.17902073 79.36263268 -235.55961037 79.8505249 C-267.2927988 86.3536006 -267.2927988 86.3536006 -272 84 C-272 82.35 -272 80.7 -272 79 C-263.20856185 74.60588696 -253.89802585 72.2896059 -244.45703125 69.71875 C-242.64237818 69.21901707 -240.82790259 68.71863924 -239.01359558 68.21765137 C-234.25154737 66.90445124 -229.48726291 65.59955878 -224.72241211 64.29656982 C-219.91196054 62.97973948 -215.10347309 61.65578102 -210.29492188 60.33203125 C-204.86729824 58.83790518 -199.43954668 57.34429354 -194.00996399 55.8572998 C-192.36185974 55.40554504 -190.71376282 54.95376356 -189.06567383 54.50195312 C-188.28457654 54.28817772 -187.50347925 54.07440231 -186.69871235 53.85414886 C-180.67237472 52.19939491 -174.67185677 50.46605575 -168.68022156 48.68933105 C-166 48 -166 48 -163 48 C-169.2723218 40.68229123 -177.6171467 37.76712399 -186.84765625 35.7734375 C-187.55792969 35.51820312 -188.26820313 35.26296875 -189 35 C-189.33 34.01 -189.66 33.02 -190 32 C-181.21379972 18.82069959 -163.96117696 12.97431391 -149.09742737 9.99790955 C-141.90182727 8.6616481 -134.74311743 8.49571786 -127.4375 8.5625 C-126.73001617 8.56520905 -126.02253235 8.56791809 -125.29360962 8.57070923 C-111.36951774 8.6503552 -97.82093395 10.22206055 -84.06494141 12.37060547 C-77.13786711 13.45182056 -70.19592499 14.43167715 -63.2538147 15.41079712 C-60.94415023 15.74013965 -58.63651576 16.08148233 -56.32885742 16.42456055 C-40.496126 18.72886048 -29.07550163 19.44796705 -15.8125 9.5625 C-13.86932638 8.0489226 -11.93129018 6.52871139 -10 5 C-3.47926267 0 -3.47926267 0 0 0 Z " fill="#FCBD11" transform="translate(846,83)"/>
<path d="M0 0 C2.31 0 4.62 0 7 0 C7 0.33 7 0.66 7 1 C4.69 1 2.38 1 0 1 C0 0.67 0 0.34 0 0 Z " fill="#FCBD11" transform="translate(102,999)"/>
</svg>
